<svg xmlns="http://www.w3.org/2000/svg" version="1.1" xmlns:xlink="http://www.w3.org/1999/xlink" xmlns:svgjs="http://svgjs.com/svgjs" width="223.04918mm" height="177.93085mm"><svg width="223.04918mm" height="177.93085mm" viewBox="0 0 223.04918 177.93085" version="1.1" id="SvgjsSvg1004" inkscape:version="1.1.1 (3bf5ae0d25, 2021-09-20)" sodipodi:docname="favicon.svg" xmlns:inkscape="http://www.inkscape.org/namespaces/inkscape" xmlns:sodipodi="http://sodipodi.sourceforge.net/DTD/sodipodi-0.dtd" xmlns="http://www.w3.org/2000/svg" xmlns:svg="http://www.w3.org/2000/svg">
  <sodipodi:namedview id="SvgjsSodipodi:namedview1003" pagecolor="#ffffff" bordercolor="#666666" borderopacity="1.0" inkscape:pageshadow="2" inkscape:pageopacity="0.0" inkscape:pagecheckerboard="0" inkscape:document-units="mm" showgrid="false" inkscape:zoom="0.64052329" inkscape:cx="312.2447" inkscape:cy="423.87217" inkscape:window-width="2560" inkscape:window-height="1377" inkscape:window-x="-8" inkscape:window-y="-8" inkscape:window-maximized="1" inkscape:current-layer="layer1"></sodipodi:namedview>
  <defs id="SvgjsDefs1002"></defs>
  <g inkscape:label="Layer 1" inkscape:groupmode="layer" id="SvgjsG1001" transform="translate(2.0705511,-36.214603)">
    <path style="fill:#000000;stroke-width:0.999998" d="m 13.955749,213.29502 c -8.7152851,-2.21294 -14.75546852,-10.28911 -15.7627705,-21.076 -0.5333733,-5.71181 -0.4124735,-6.27179 1.84027038,-8.52455 L 2.4443901,181.28333 H 44.226839 86.009246 l 1.740649,3.86009 c 2.962358,6.56929 5.162544,7.3008 21.970815,7.30482 14.25439,0.004 14.65099,-0.0502 17.38848,-2.35373 1.54078,-1.29647 3.28066,-3.80936 3.8664,-5.5842 l 1.06499,-3.22698 h 42.33583 c 26.51724,0 42.98729,0.34866 44.07937,0.9331 2.38108,1.27433 3.23392,7.79018 1.87586,14.33189 -1.36048,6.55354 -5.59316,12.28724 -11.20081,15.17308 l -4.1844,2.15337 -93.47079,0.22407 c -65.845419,0.15794 -94.667466,-0.0795 -97.519891,-0.80395 z m 6.8817,-43.79589 C 19.717373,168.37908 20.108778,53.1515 21.248023,48.627197 c 1.42361,-5.653734 7.478214,-11.238053 13.058717,-12.044404 2.229807,-0.322176 37.595442,-0.45922 78.59034,-0.304519 l 74.53612,0.281303 3.75271,2.601053 c 7.53481,5.222466 7.2553,2.509374 7.2553,70.42792 v 60.06103 l -88.48933,0.23735 c -48.669097,0.13052 -88.77062,-0.044 -89.114431,-0.38781 z M 176.56978,103.10458 V 58.431022 H 109.55943 42.549083 v 44.673558 44.67357 h 67.010347 67.01035 z" id="SvgjsPath1000"></path>
  </g>
</svg><style>@media (prefers-color-scheme: light) { :root { filter: none; } }
</style></svg>